<?xml version="1.0"?>
<svg xmlns="http://www.w3.org/2000/svg" xmlns:xlink="http://www.w3.org/1999/xlink" version="1.1" id="Capa_1" x="0px" y="0px" viewBox="0 0 512 512" style="enable-background:new 0 0 512 512;" xml:space="preserve" width="512px" height="512px" class=""><g><path style="fill:#F8B26A" d="M40,474c14.45-105.87,105.38-188,216-188s201.56,82.21,216,188H40z" data-original="#B1FFFF" class="active-path" data-old_color="#B1FFFF"/><g>
	<path style="fill:#E15B64" d="M308.08,253.28C356.533,232.421,387.945,184.752,388,132C388,59.21,328.79,0,256,0   S124,59.21,124,132c0.055,52.752,31.467,100.421,79.92,121.28C92.35,276.22,0,372.94,0,512h512   C512,374.15,420.84,276.47,308.08,253.28z M140,132c0-64.065,51.935-116,116-116s116,51.935,116,116s-51.935,116-116,116   C191.965,247.928,140.072,196.035,140,132z M248,264.15V496H16.13C20.23,369.91,121.54,268.26,248,264.15z M264,496V264.15   C390.62,268.27,491.78,370.06,495.87,496H264z" data-original="#304FFE" class="" data-old_color="#304FFE"/>
	<rect x="317.44" y="363.25" style="fill:#E15B64" width="65.13" height="16" data-original="#304FFE" class="" data-old_color="#304FFE"/>
</g></g> </svg>
